<?xml version="1.0" encoding="utf-8"?>
<svg viewBox="0 0 772.444 400.741" height="560.5197" width="395.70081" id="svg2" version="1.1" xmlns="http://www.w3.org/2000/svg">
  <g transform="matrix(1.3333333,0,0,-1.3333333,0,1122.5197)" id="g10">
    <g id="g12">
      <path id="path14" style="fill:#ffffff;fill-opacity:1;fill-rule:evenodd;stroke:none" d="m 128.283,711.5556 v 61.8846 h 17.405 c 6.5946,0 10.8859,-0.3033 12.888,-0.9222 3.0776,-0.9371 5.6551,-2.9534 7.7321,-6.0652 2.0772,-3.1114 3.1153,-7.1297 3.1153,-12.0569 0,-3.8033 -0.6004,-6.986 -1.789,-9.5797 -1.201,-2.592 -2.7153,-4.6239 -4.5544,-6.1073 -1.8397,-1.4694 -3.7157,-2.4485 -5.6174,-2.9245 -2.5915,-0.5904 -6.332,-0.8926 -11.2366,-0.8926 h -7.0568 v -23.3362 z m 10.8862,51.4264 v -17.6318 h 5.9185 c 4.2664,0 7.1067,0.3306 8.5456,0.9791 1.4385,0.648 2.5647,1.656 3.378,3.0541 0.8133,1.3827 1.226,2.9817 1.226,4.8254 0,2.2615 -0.5752,4.1201 -1.7141,5.5891 -1.1512,1.4697 -2.5895,2.3913 -4.3538,2.7657 -1.2883,0.2738 -3.8792,0.4184 -7.7822,0.4184 z m 38.8128,-51.4264 v 61.8846 h 10.8859 v -61.8846 z m 21.2332,0 v 61.8846 h 39.7891 V 762.982 h -28.9032 v -13.7429 h 26.8764 v -10.4582 h -26.8764 v -16.7675 h 29.9537 v -10.4578 z m 50.2245,0 v 61.8846 h 10.8854 v -27.4133 l 21.9342,27.4133 h 14.5896 l -20.283,-24.1005 21.3332,-37.7841 h -14.0382 l -14.7898,29.0545 -8.746,-10.3424 v -18.7121 z m 102.4872,0 h -11.7241 l -4.6414,14.0876 h -21.5589 l -4.4666,-14.0876 h -11.5115 l 20.8704,61.8846 h 11.4985 z m -19.8941,24.5463 -7.4698,22.904 -7.2573,-22.904 z m 25.6879,-24.5463 v 61.8846 h 22.8594 c 5.743,0 9.923,-0.5622 12.5252,-1.6719 2.6144,-1.1089 4.6913,-3.0824 6.256,-5.9205 1.5642,-2.8527 2.3519,-6.0927 2.3519,-9.7526 0,-4.6525 -1.1763,-8.4841 -3.5407,-11.5086 -2.365,-3.0252 -5.893,-4.9275 -10.5982,-5.7195 2.3406,-1.5704 4.2667,-3.2987 5.7807,-5.1857 1.5267,-1.8867 3.5779,-5.2432 6.156,-10.0545 l 6.5565,-12.0713 h -12.9753 l -7.7828,13.5125 c -2.7896,4.7968 -4.7044,7.8213 -5.743,9.0745 -1.0261,1.2388 -2.1146,2.103 -3.2655,2.564 -1.1636,0.4609 -2.99,0.691 -5.4927,0.691 h -2.2025 v -25.842 z m 10.885,35.6955 h 8.0328 c 5.2056,0 8.4461,0.2589 9.7478,0.7634 1.2878,0.5046 2.3142,1.3828 3.0399,2.6221 0.7378,1.2384 1.1009,2.7944 1.1009,4.6525 0,2.0888 -0.4884,3.7601 -1.4516,5.0561 -0.9629,1.2824 -2.3266,2.0883 -4.0782,2.4205 -0.8886,0.1437 -3.5285,0.2163 -7.9208,0.2163 h -8.4708 z m 43.3301,-35.6955 v 61.8846 h 10.535 l 22.1218,-41.4732 v 41.4732 h 10.0599 v -61.8846 h -10.8734 l -21.7843,40.6806 v -40.6806 z m 53.8401,0 v 61.8846 h 10.8854 v -61.8846 z m 69.6555,0 h -11.7238 l -4.6423,14.0876 h -21.5586 l -4.4674,-14.0876 h -11.511 l 20.871,61.8846 h 11.4984 z m -19.8947,24.5463 -7.4696,22.904 -7.2578,-22.904 z"/>
      <path id="path16" style="fill:#ffffff;fill-opacity:1;fill-rule:evenodd;stroke:none" d="m 75.5235,738.7566 c 1.1154,0 2.0202,-0.7691 2.0202,-1.7175 0,-0.9497 -0.9048,-1.719 -2.0202,-1.719 -1.1166,0 -2.0217,0.7693 -2.0217,1.719 0,0.9484 0.9051,1.7175 2.0217,1.7175"/>
      <path id="path18" style="fill:#ffffff;fill-opacity:1;fill-rule:evenodd;stroke:none" d="m 98.4606,738.7566 c 1.1157,0 2.0211,-0.7691 2.0211,-1.7175 0,-0.9497 -0.9054,-1.719 -2.0211,-1.719 -1.1157,0 -2.0206,0.7693 -2.0206,1.719 0,0.9484 0.9049,1.7175 2.0206,1.7175"/>
      <path id="path20" style="fill:#ffffff;fill-opacity:1;fill-rule:evenodd;stroke:none" d="m 57.6292,787.1323 c -3.8883,-17.2224 3.2902,-9.3395 5.0618,-16.08 1.2904,-4.9051 1.8182,-15.5733 2.403,-21.2128 l 0.0623,-0.0437 c -1.3025,-3.147 -1.5426,-2.9557 -1.5426,-12.5206 0,-10.114 10.3955,-28.4942 23.2209,-28.4942 12.8247,0 23.2208,12.7565 23.2208,28.4942 0,3.4376 -0.4966,6.732 -1.406,9.7829 0.1851,0.1386 0.3354,0.2815 0.4388,0.4283 1.7952,4.9731 2.9996,24.0001 2.2476,30.0184 -2.1039,-3.873 -3.6998,-22.1145 -4.7846,-28.2187 -9.6378,-2.3193 -29.6149,-4.5459 -37.3833,1.2776 -2.1563,1.6158 -1.6608,3.4725 -2.1676,6.8241 -0.815,5.3873 -2.367,10.0823 -3.4373,15.1118 l 7.8134,-0.9691 c 0.0252,-3.845 0.8353,-7.4262 1.8479,-10.6492 1.6818,2.5069 -0.3311,8.0433 -0.917,10.6755 l 7.9665,-0.0348 c -0.1633,-6.1529 0.0039,-6.6138 0.7982,-8.3336 l 0.7832,8.4605 19.7399,2.9455 -2.1424,-13.3772 c 3.0373,3.1648 3.4432,9.6281 2.842,14.3294 7.0642,1.8295 13.7645,6.1937 12.085,14.1366 -0.0964,-0.1749 -0.1834,-0.2585 -0.2166,-0.5589 -0.034,-0.3005 -0.1622,-0.423 -0.2084,-0.563 -1.8034,-5.5485 -2.8267,-7.3639 -11.4465,-10.2274 -6.2604,-2.0818 -13.1474,-3.0135 -20.1487,-3.4313 -38.8689,-2.3174 -17.6632,11.7308 -20.8908,19.0576 l -2.8856,-5.8782 c -8.3608,2.6719 -11.7998,12.3346 -2.1368,16.8443 8.1961,3.825 18.7645,1.9545 27.0748,-0.4235 l -10.2404,-3.6306 c 15.3224,-2.0478 28.2396,13.994 39.5124,12.6995 6.8618,-0.7872 17.3554,-16.5277 10.7172,-24.9384 -2.3782,-3.0127 -3.7488,-3.0677 -6.5704,-4.625 -1.9738,-1.0897 -0.5695,-0.2395 -1.4528,-0.9031 13.1936,0.0167 16.8781,14.6437 7.7831,26.4328 -9.5981,12.4429 -17.7446,6.8383 -29.7935,0.0915 -9.4326,-5.2818 -4.8195,-4.8586 -14.7838,-1.5381 -29.5362,9.847 -41.5134,-16.7811 -21.0637,-20.9591 z m 10.8173,-39.4217 c 4.7849,-2.6858 9.8104,-3.9378 17.3409,-4.147 2.6048,-0.0732 13.6344,0.6018 19.6044,2.1821 0.9771,-1.1948 1.6013,-1.7204 1.6013,-8.4705 0,-9.2991 -9.0246,-25.4322 -20.1585,-25.4322 -11.1334,0 -20.1592,11.3862 -20.1592,25.4322 0,3.719 0.6338,7.2513 1.7711,10.4354"/>
      <path id="path22" style="fill:#ffffff;fill-opacity:1;fill-rule:evenodd;stroke:none" d="m 88.0155,758.291 c 2.0157,2.7663 2.7915,9.4955 3.0183,13.4302 -2.831,-2.7711 -3.5218,-9.6573 -3.0183,-13.4302"/>
      <path id="path24" style="fill:#ffffff;fill-opacity:1;fill-rule:evenodd;stroke:none" d="m 94.5802,726.4037 c -3.4512,-3.488 -12.2763,-4.7222 -15.8907,-0.9226 2.3471,-4.9196 11.2884,-6.7556 15.8907,0.9226"/>
      <path id="path26" style="fill:#ffffff;fill-opacity:1;fill-rule:evenodd;stroke:none" d="m 63.8376,699.6883 h 471.5938 v 2.9435 H 63.8376 Z"/>
      <path id="path28" style="fill:#ffffff;fill-opacity:1;fill-rule:evenodd;stroke:none" d="m 370.4604,588.1516 v 6.8261 h 0.9644 c 0.1683,0 0.2865,-0.0312 0.3526,-0.0936 0.0672,-0.0621 0.1108,-0.1684 0.1326,-0.3194 l 0.1001,-0.8249 c 0.2446,0.4218 0.5307,0.7543 0.8586,0.9981 0.3288,0.244 0.6959,0.3659 1.1047,0.3659 0.3367,0 0.6162,-0.0779 0.8379,-0.2324 l -0.212,-1.2305 c -0.0136,-0.0806 -0.0428,-0.1355 -0.087,-0.1696 -0.0446,-0.0331 -0.1044,-0.051 -0.18,-0.051 -0.0667,0 -0.1574,0.0153 -0.273,0.0471 -0.1151,0.0306 -0.2685,0.0465 -0.4592,0.0465 -0.3408,0 -0.6336,-0.0936 -0.8776,-0.2815 -0.2441,-0.1888 -0.4499,-0.466 -0.6188,-0.8303 v -4.2505 z m 11.7176,6.9321 c 0.5105,0 0.9737,-0.0819 1.3881,-0.2461 0.4153,-0.1644 0.7673,-0.3968 1.0607,-0.6979 0.2926,-0.3024 0.5188,-0.6701 0.6784,-1.1046 0.1598,-0.4351 0.2392,-0.9213 0.2392,-1.4576 0,-0.5411 -0.0794,-1.029 -0.2392,-1.4635 -0.1596,-0.4349 -0.3858,-0.8053 -0.6784,-1.1109 -0.2934,-0.3062 -0.6454,-0.5414 -1.0607,-0.7056 -0.4144,-0.1641 -0.8776,-0.2463 -1.3881,-0.2463 -0.5097,0 -0.9734,0.0822 -1.3904,0.2463 -0.417,0.1642 -0.7716,0.3994 -1.0664,0.7056 -0.2957,0.3056 -0.5236,0.676 -0.6851,1.1109 -0.1625,0.4345 -0.2441,0.9224 -0.2441,1.4635 0,0.5363 0.0816,1.0225 0.2441,1.4576 0.1615,0.4345 0.3894,0.8022 0.6851,1.1046 0.2948,0.3011 0.6494,0.5335 1.0664,0.6979 0.417,0.1642 0.8807,0.2461 1.3904,0.2461 z m 0,-5.768 c 0.568,0 0.9896,0.1903 1.262,0.5721 0.2729,0.3812 0.4079,0.9399 0.4079,1.6764 0,0.7364 -0.135,1.2977 -0.4079,1.6829 -0.2724,0.3858 -0.694,0.5789 -1.262,0.5789 -0.5766,0 -1.0021,-0.1931 -1.2773,-0.5811 -0.2747,-0.3875 -0.4124,-0.9482 -0.4124,-1.6807 0,-0.7313 0.1377,-1.2886 0.4124,-1.6725 0.2752,-0.3829 0.7007,-0.576 1.2773,-0.576 z m 9.6823,8.7225 v -5.6625 h 0.3061 c 0.1109,0 0.1973,0.0154 0.2594,0.0468 0.0624,0.0309 0.1287,0.0887 0.1998,0.1729 l 1.6966,2.0963 c 0.0751,0.0887 0.1547,0.1595 0.2389,0.2106 0.0848,0.0504 0.1953,0.0754 0.3337,0.0754 h 1.5026 l -2.1214,-2.5353 c -0.076,-0.093 -0.1537,-0.1775 -0.2336,-0.2549 -0.0799,-0.0776 -0.1658,-0.146 -0.2594,-0.2044 0.0936,-0.0663 0.1752,-0.1442 0.2464,-0.2318 0.0705,-0.0899 0.1417,-0.1846 0.2126,-0.2875 l 2.2759,-3.3122 h -1.4842 c -0.129,0 -0.2367,0.0209 -0.3263,0.0663 -0.0882,0.0439 -0.1681,0.1193 -0.2392,0.2256 l -1.7363,2.5886 c -0.0669,0.1012 -0.1338,0.1681 -0.1992,0.199 -0.0672,0.032 -0.1661,0.0471 -0.2999,0.0471 h -0.3725 v -3.1266 h -1.6433 v 9.8866 z m 16.5484,-3.7394 c 0,-0.1148 -0.0202,-0.2262 -0.0621,-0.3345 -0.0423,-0.1092 -0.093,-0.2021 -0.1511,-0.2778 l -3.2468,-4.2713 h 3.367 v -1.2636 h -5.2761 v 0.6848 c 0,0.0748 0.0178,0.1667 0.0535,0.2704 0.0355,0.1043 0.0905,0.2019 0.1664,0.2951 l 3.2726,4.3178 h -3.2995 v 1.258 h 5.1761 z m 10.0284,-6.1472 h -0.7393 c -0.1545,0 -0.2772,0.0241 -0.3654,0.0705 -0.0881,0.0465 -0.1556,0.1401 -0.1995,0.2815 l -0.1469,0.4859 c -0.1729,-0.1554 -0.341,-0.2906 -0.5074,-0.4082 -0.1664,-0.1176 -0.3396,-0.2174 -0.5165,-0.2965 -0.1774,-0.0799 -0.3665,-0.14 -0.5655,-0.18 -0.2001,-0.04 -0.422,-0.0598 -0.6661,-0.0598 -0.288,0 -0.5542,0.0397 -0.7982,0.1176 -0.2433,0.0777 -0.4519,0.1931 -0.6276,0.3475 -0.1755,0.1557 -0.3118,0.3484 -0.4105,0.5794 -0.0972,0.2302 -0.1463,0.4987 -0.1463,0.8045 0,0.258 0.0689,0.5131 0.2038,0.7634 0.1355,0.2506 0.36,0.4759 0.675,0.678 0.3143,0.2024 0.7339,0.3683 1.2571,0.5015 0.5236,0.1338 1.1733,0.2086 1.9494,0.2262 v 0.3994 c 0,0.4566 -0.0952,0.796 -0.2877,1.0159 -0.1936,0.2191 -0.4754,0.3277 -0.8433,0.3277 -0.2665,0 -0.4878,-0.0312 -0.6647,-0.0932 -0.1786,-0.0618 -0.3311,-0.1304 -0.4624,-0.2075 -0.1306,-0.0788 -0.252,-0.1491 -0.3634,-0.2115 -0.1105,-0.0615 -0.2327,-0.0933 -0.3653,-0.0933 -0.1106,0 -0.2064,0.0301 -0.2866,0.0868 -0.0794,0.0575 -0.144,0.1289 -0.1922,0.2129 l -0.2999,0.5261 c 0.7852,0.7185 1.7317,1.0774 2.8406,1.0774 0.3994,0 0.7563,-0.0643 1.0695,-0.195 0.3127,-0.1313 0.5768,-0.313 0.7937,-0.5457 0.2177,-0.2336 0.3838,-0.5119 0.4966,-0.8365 0.1137,-0.3234 0.169,-0.678 0.169,-1.0641 z m -3.1944,1.0241 c 0.1687,0 0.3237,0.015 0.4657,0.0462 0.1418,0.0315 0.2781,0.0777 0.4043,0.1401 0.1258,0.0629 0.2483,0.1403 0.3659,0.231 0.1174,0.091 0.235,0.1973 0.3546,0.3209 v 1.1517 c -0.4787,-0.0224 -0.8781,-0.0627 -1.1996,-0.1225 -0.3214,-0.0592 -0.5808,-0.1377 -0.7764,-0.2304 -0.1945,-0.093 -0.3325,-0.2021 -0.4147,-0.3257 -0.0819,-0.1245 -0.1242,-0.2594 -0.1242,-0.406 0,-0.2882 0.0865,-0.4943 0.2568,-0.619 0.1713,-0.1248 0.3929,-0.1863 0.6676,-0.1863 z m 10.3808,8.8625 v -3.7065 l 1.0845,0.4393 v -0.945 c 0,-0.1817 -0.0751,-0.3017 -0.2262,-0.3586 l -0.8583,-0.3665 v -4.9493 h -1.6427 v 4.3713 l -1.0914,-0.4397 v 0.9714 c 0,0.1557 0.0689,0.2617 0.2058,0.3195 l 0.8856,0.373 v 4.2911 z m 8.5912,-2.9545 c 0.51,0 0.9734,-0.0819 1.3884,-0.2461 0.4144,-0.1644 0.7671,-0.3968 1.0602,-0.6979 0.2925,-0.3024 0.5187,-0.6701 0.6786,-1.1046 0.1593,-0.4351 0.2392,-0.9213 0.2392,-1.4576 0,-0.5411 -0.0799,-1.029 -0.2392,-1.4635 -0.1599,-0.4349 -0.3861,-0.8053 -0.6786,-1.1109 -0.2931,-0.3062 -0.6458,-0.5414 -1.0602,-0.7056 -0.415,-0.1641 -0.8784,-0.2463 -1.3884,-0.2463 -0.5105,0 -0.9737,0.0822 -1.391,0.2463 -0.4164,0.1642 -0.771,0.3994 -1.0658,0.7056 -0.2956,0.3056 -0.5241,0.676 -0.686,1.1109 -0.1615,0.4345 -0.2437,0.9224 -0.2437,1.4635 0,0.5363 0.0822,1.0225 0.2437,1.4576 0.1619,0.4345 0.3904,0.8022 0.686,1.1046 0.2948,0.3011 0.6494,0.5335 1.0658,0.6979 0.4173,0.1642 0.8805,0.2461 1.391,0.2461 z m 0,-5.768 c 0.5681,0 0.989,0.1903 1.262,0.5721 0.2724,0.3812 0.4079,0.9399 0.4079,1.6764 0,0.7364 -0.1355,1.2977 -0.4079,1.6829 -0.273,0.3858 -0.6939,0.5789 -1.262,0.5789 -0.5763,0 -1.0026,-0.1931 -1.2773,-0.5811 -0.2752,-0.3875 -0.4121,-0.9482 -0.4121,-1.6807 0,-0.7313 0.1369,-1.2886 0.4121,-1.6725 0.2747,-0.3829 0.701,-0.576 1.2773,-0.576 z m 12.9558,4.9831 c 0,-0.1148 -0.0199,-0.2262 -0.0624,-0.3345 -0.042,-0.1092 -0.0927,-0.2021 -0.1508,-0.2778 l -3.2468,-4.2713 h 3.3664 v -1.2636 h -5.2761 v 0.6848 c 0,0.0748 0.0178,0.1667 0.0533,0.2704 0.0354,0.1043 0.091,0.2019 0.1661,0.2951 l 3.2737,4.3178 h -3.3001 v 1.258 h 5.1767 z m -1.4372,2.6949 c 0,-0.142 -0.0292,-0.2756 -0.0865,-0.4014 -0.0578,-0.1264 -0.1332,-0.2378 -0.2287,-0.3305 -0.0953,-0.0927 -0.2084,-0.1673 -0.339,-0.2223 -0.1313,-0.0555 -0.2708,-0.0842 -0.4167,-0.0842 -0.1418,0 -0.2753,0.0287 -0.4,0.0842 -0.1236,0.055 -0.2327,0.1296 -0.3257,0.2223 -0.093,0.0927 -0.1667,0.2041 -0.2222,0.3305 -0.0548,0.1258 -0.0842,0.2594 -0.0842,0.4014 0,0.146 0.0294,0.2834 0.0842,0.4099 0.0555,0.1264 0.1292,0.2372 0.2222,0.3327 0.093,0.0959 0.2021,0.1701 0.3257,0.226 0.1247,0.0564 0.2582,0.0825 0.4,0.0825 0.1459,0 0.2854,-0.0261 0.4167,-0.0825 0.1306,-0.0559 0.2437,-0.1301 0.339,-0.226 0.0955,-0.0955 0.1709,-0.2063 0.2287,-0.3327 0.0573,-0.1265 0.0865,-0.2639 0.0865,-0.4099 z m 8.9365,-1.91 c 0.43,0 0.8274,-0.0683 1.1891,-0.2058 0.3612,-0.1381 0.6718,-0.3373 0.9335,-0.6021 0.2616,-0.263 0.4651,-0.5868 0.6123,-0.9709 0.1462,-0.3838 0.2196,-0.8226 0.2196,-1.3147 0,-0.1241 -0.005,-0.2262 -0.0158,-0.3084 -0.0108,-0.0825 -0.0309,-0.1465 -0.0601,-0.1924 -0.0289,-0.0474 -0.0683,-0.0805 -0.1171,-0.1007 -0.0485,-0.0193 -0.1108,-0.0312 -0.1865,-0.0312 h -4.2182 c 0.0487,-0.7001 0.2369,-1.2149 0.5655,-1.5434 0.3282,-0.3274 0.7628,-0.4918 1.3042,-0.4918 0.2664,0 0.4966,0.0311 0.6899,0.0929 0.1925,0.0616 0.3612,0.1304 0.5055,0.207 0.144,0.0745 0.2701,0.1431 0.3789,0.2049 0.1086,0.0629 0.2135,0.0936 0.315,0.0936 0.0666,0 0.1247,-0.0134 0.1737,-0.0394 0.0485,-0.0267 0.0907,-0.065 0.1262,-0.1131 l 0.479,-0.5987 c -0.1817,-0.2135 -0.386,-0.3909 -0.6122,-0.5349 -0.2257,-0.1437 -0.4618,-0.2594 -0.7076,-0.3461 -0.246,-0.0871 -0.4963,-0.1486 -0.752,-0.1837 -0.2554,-0.0357 -0.5034,-0.0536 -0.7427,-0.0536 -0.4748,0 -0.9161,0.0797 -1.3246,0.2373 -0.4074,0.1581 -0.7628,0.3909 -1.0644,0.6984 -0.3013,0.3084 -0.5386,0.6905 -0.7115,1.1438 -0.1732,0.4555 -0.2594,0.9811 -0.2594,1.5798 0,0.4651 0.0748,0.9053 0.2259,1.3149 0.1511,0.4102 0.368,0.768 0.6497,1.0715 0.2821,0.3036 0.6259,0.5434 1.031,0.7212 0.4065,0.1771 0.8634,0.2656 1.3731,0.2656 z m 0.034,-1.1775 c -0.4796,0 -0.8544,-0.1352 -1.1253,-0.4059 -0.2705,-0.2696 -0.4434,-0.6543 -0.5185,-1.1509 h 3.0869 c 0,0.2132 -0.0289,0.4144 -0.0864,0.6035 -0.0576,0.1879 -0.1463,0.352 -0.2659,0.4943 -0.1202,0.1423 -0.2707,0.2554 -0.453,0.3371 -0.1814,0.0813 -0.3943,0.1219 -0.6378,0.1219 z m 7.6255,-5.7546 v 6.8261 h 1.0046 c 0.2137,0 0.3526,-0.0998 0.4192,-0.2997 l 0.1137,-0.5383 c 0.1372,0.1421 0.2838,0.2705 0.4363,0.3853 0.1533,0.1153 0.3152,0.2148 0.4861,0.2993 0.1704,0.0845 0.3518,0.1488 0.5479,0.1931 0.1948,0.0442 0.4079,0.0663 0.6378,0.0663 0.3731,0 0.7036,-0.0618 0.9919,-0.1882 0.2885,-0.1267 0.5298,-0.3036 0.7222,-0.5324 0.1945,-0.229 0.3405,-0.5014 0.44,-0.8183 0.0998,-0.3172 0.1488,-0.6673 0.1488,-1.0491 v -4.3441 h -1.6438 v 4.3441 c 0,0.4172 -0.0953,0.7412 -0.288,0.9691 -0.1936,0.2288 -0.4836,0.3413 -0.87,0.3413 -0.2837,0 -0.5499,-0.0641 -0.7982,-0.1927 -0.2483,-0.1285 -0.483,-0.3036 -0.7044,-0.5259 v -4.9359 z m 12.683,6.8261 v -6.8261 h -1.6432 v 6.8261 z m 0.2461,1.989 c 0,-0.1423 -0.0289,-0.2749 -0.0865,-0.3991 -0.0578,-0.1239 -0.1332,-0.2333 -0.2284,-0.326 -0.0953,-0.0927 -0.2087,-0.1664 -0.3371,-0.2213 -0.1284,-0.0559 -0.2664,-0.0851 -0.4127,-0.0851 -0.142,0 -0.2747,0.0292 -0.4014,0.0851 -0.1261,0.0549 -0.2367,0.1286 -0.3297,0.2213 -0.0935,0.0927 -0.1669,0.2021 -0.2228,0.326 -0.0552,0.1242 -0.0839,0.2568 -0.0839,0.3991 0,0.1466 0.0287,0.2841 0.0839,0.4128 0.0559,0.1287 0.1293,0.2386 0.2228,0.3328 0.093,0.0932 0.2036,0.168 0.3297,0.2233 0.1267,0.0559 0.2594,0.0831 0.4014,0.0831 0.1463,0 0.2843,-0.0272 0.4127,-0.0831 0.1284,-0.0553 0.2418,-0.1301 0.3371,-0.2233 0.0952,-0.0942 0.1706,-0.2041 0.2284,-0.3328 0.0576,-0.1287 0.0865,-0.2662 0.0865,-0.4128 z m 10.3275,-8.8151 h -0.7379 c -0.1556,0 -0.2778,0.0241 -0.3668,0.0705 -0.0882,0.0465 -0.1556,0.1401 -0.1987,0.2815 l -0.1477,0.4859 c -0.1723,-0.1554 -0.341,-0.2906 -0.5074,-0.4082 -0.1661,-0.1176 -0.3393,-0.2174 -0.5165,-0.2965 -0.1774,-0.0799 -0.3659,-0.14 -0.5655,-0.18 -0.2001,-0.04 -0.4215,-0.0598 -0.6661,-0.0598 -0.288,0 -0.5542,0.0397 -0.7983,0.1176 -0.2432,0.0777 -0.4518,0.1931 -0.627,0.3475 -0.176,0.1557 -0.3126,0.3484 -0.4104,0.5794 -0.097,0.2302 -0.1469,0.4987 -0.1469,0.8045 0,0.258 0.0695,0.5131 0.2044,0.7634 0.1349,0.2506 0.3597,0.4759 0.6744,0.678 0.3146,0.2024 0.7344,0.3683 1.2571,0.5015 0.5242,0.1338 1.1733,0.2086 1.9497,0.2262 v 0.3994 c 0,0.4566 -0.0955,0.796 -0.288,1.0159 -0.1936,0.2191 -0.4748,0.3277 -0.843,0.3277 -0.2668,0 -0.4876,-0.0312 -0.665,-0.0932 -0.1778,-0.0618 -0.3306,-0.1304 -0.4615,-0.2075 -0.131,-0.0788 -0.2529,-0.1491 -0.3643,-0.2115 -0.1105,-0.0615 -0.2327,-0.0933 -0.3654,-0.0933 -0.1105,0 -0.2069,0.0301 -0.286,0.0868 -0.0799,0.0575 -0.1445,0.1289 -0.193,0.2129 l -0.2996,0.5261 c 0.7852,0.7185 1.7317,1.0774 2.8411,1.0774 0.3989,0 0.7563,-0.0643 1.0693,-0.195 0.3118,-0.1313 0.5762,-0.313 0.7934,-0.5457 0.2177,-0.2336 0.3835,-0.5119 0.4966,-0.8365 0.1137,-0.3234 0.169,-0.678 0.169,-1.0641 z m -3.1938,1.0241 c 0.1689,0 0.324,0.015 0.4654,0.0462 0.142,0.0315 0.2778,0.0777 0.4039,0.1401 0.1262,0.0629 0.2484,0.1403 0.366,0.231 0.1171,0.091 0.235,0.1973 0.3549,0.3209 v 1.1517 c -0.4791,-0.0224 -0.8785,-0.0627 -1.2005,-0.1225 -0.3209,-0.0592 -0.5799,-0.1377 -0.7755,-0.2304 -0.1951,-0.093 -0.3328,-0.2021 -0.415,-0.3257 -0.0814,-0.1245 -0.1242,-0.2594 -0.1242,-0.406 0,-0.2882 0.0865,-0.4943 0.2577,-0.619 0.1703,-0.1248 0.3926,-0.1863 0.6673,-0.1863 z m 14.2262,0.2067 h 1.9491 v 5.6077 c 0,0.218 0.007,0.4459 0.0201,0.686 l -1.383,-1.1576 c -0.059,-0.0491 -0.1162,-0.0822 -0.1755,-0.1007 -0.0606,-0.0173 -0.1199,-0.0258 -0.1774,-0.0258 -0.0887,0 -0.169,0.0199 -0.2424,0.0579 -0.0731,0.0377 -0.1284,0.0793 -0.1641,0.1284 l -0.5185,0.712 2.9342,2.4951 h 1.3498 v -8.403 h 1.7306 v -1.2308 h -5.3229 z m 12.8228,2.6078 c -0.3328,0 -0.6591,0.0579 -0.9782,0.1727 -0.3195,0.1156 -0.6032,0.2905 -0.8538,0.5235 -0.2506,0.2327 -0.4533,0.5213 -0.6032,0.8652 -0.1511,0.343 -0.2268,0.7446 -0.2268,1.2058 0,0.4309 0.0805,0.834 0.2395,1.2115 0.1599,0.3773 0.3838,0.7076 0.6727,0.9908 0.288,0.2843 0.6338,0.5085 1.0375,0.672 0.4039,0.1647 0.8492,0.2467 1.3373,0.2467 0.4924,0 0.936,-0.0786 1.3284,-0.233 0.3928,-0.1557 0.7279,-0.3722 1.0046,-0.6517 0.2775,-0.2795 0.4903,-0.6149 0.6386,-1.0058 0.1483,-0.3889 0.2225,-0.8175 0.2225,-1.2838 0,-0.2965 -0.0252,-0.5782 -0.0762,-0.845 -0.0499,-0.2659 -0.1236,-0.5201 -0.2194,-0.7668 -0.0953,-0.2463 -0.2109,-0.4858 -0.3436,-0.7183 -0.1332,-0.2332 -0.2818,-0.468 -0.4456,-0.7032 l -2.2022,-3.1402 c -0.0754,-0.1063 -0.1866,-0.1956 -0.3348,-0.2688 -0.1485,-0.0728 -0.3192,-0.1102 -0.5102,-0.1102 h -1.5103 l 2.9874,3.7321 c 0.0745,0.0929 0.1457,0.1845 0.2126,0.2724 0.0663,0.0893 0.131,0.178 0.1933,0.2664 -0.2222,-0.1417 -0.4663,-0.2486 -0.7322,-0.3211 -0.2659,-0.0737 -0.5454,-0.1112 -0.8379,-0.1112 z m 2.2419,2.8812 c 0,0.2608 -0.0402,0.4963 -0.1202,0.7021 -0.0791,0.2067 -0.1922,0.3793 -0.3393,0.521 -0.1462,0.142 -0.3189,0.2517 -0.521,0.3266 -0.2012,0.0757 -0.4235,0.1131 -0.6627,0.1131 -0.2483,0 -0.4726,-0.0397 -0.6718,-0.1225 -0.1999,-0.0811 -0.3688,-0.1973 -0.5083,-0.3435 -0.14,-0.1457 -0.2489,-0.3192 -0.324,-0.5208 -0.0751,-0.2021 -0.1128,-0.4237 -0.1128,-0.6633 0,-0.5369 0.1397,-0.945 0.4173,-1.2262 0.2766,-0.2815 0.6698,-0.4233 1.1795,-0.4233 0.2664,0 0.5034,0.0417 0.7092,0.1262 0.2063,0.0842 0.3801,0.1995 0.5221,0.3452 0.142,0.1469 0.2498,0.3204 0.3237,0.5196 0.0729,0.1987 0.1083,0.4147 0.1083,0.6458 z m 12.6088,2.9004 v -0.7121 c 0,-0.2126 -0.0221,-0.3832 -0.0677,-0.5145 -0.0468,-0.1306 -0.0941,-0.2418 -0.1375,-0.3308 l -3.6397,-7.5044 c -0.0754,-0.1554 -0.1817,-0.2857 -0.3195,-0.3949 -0.1377,-0.1085 -0.3234,-0.1635 -0.5592,-0.1635 h -1.1903 l 3.7256,7.351 c 0.1553,0.3017 0.3276,0.5622 0.519,0.7793 h -4.6046 c -0.1012,0 -0.1908,0.0371 -0.2659,0.1134 -0.0746,0.0742 -0.1131,0.1635 -0.1131,0.2656 v 1.1109 z m 7.3202,-5.7816 c -0.3325,0 -0.6585,0.0579 -0.9777,0.1727 -0.32,0.1156 -0.6035,0.2905 -0.854,0.5235 -0.2506,0.2327 -0.4522,0.5213 -0.6033,0.8652 -0.1505,0.343 -0.2262,0.7446 -0.2262,1.2058 0,0.4309 0.08,0.834 0.2398,1.2115 0.1594,0.3773 0.383,0.7076 0.6719,0.9908 0.2885,0.2843 0.6346,0.5085 1.0377,0.672 0.404,0.1647 0.8498,0.2467 1.3383,0.2467 0.4915,0 0.9351,-0.0786 1.3277,-0.233 0.3923,-0.1557 0.7277,-0.3722 1.0046,-0.6517 0.2767,-0.2795 0.4904,-0.6149 0.6386,-1.0058 0.1492,-0.3889 0.222,-0.8175 0.222,-1.2838 0,-0.2965 -0.0249,-0.5782 -0.0751,-0.845 -0.051,-0.2659 -0.1245,-0.5201 -0.22,-0.7668 -0.0952,-0.2463 -0.2114,-0.4858 -0.3441,-0.7183 -0.1327,-0.2332 -0.2809,-0.468 -0.4456,-0.7032 l -2.2017,-3.1402 c -0.076,-0.1063 -0.1865,-0.1956 -0.3353,-0.2688 -0.1486,-0.0728 -0.3195,-0.1102 -0.5097,-0.1102 h -1.51 l 2.9866,3.7321 c 0.0757,0.0929 0.1465,0.1845 0.2134,0.2724 0.0661,0.0893 0.1307,0.178 0.1925,0.2664 -0.2214,-0.1417 -0.4655,-0.2486 -0.7322,-0.3211 -0.2662,-0.0737 -0.5445,-0.1112 -0.8382,-0.1112 z m 2.2422,2.8812 c 0,0.2608 -0.0394,0.4963 -0.1199,0.7021 -0.0794,0.2067 -0.1925,0.3793 -0.339,0.521 -0.1463,0.142 -0.3195,0.2517 -0.521,0.3266 -0.2016,0.0757 -0.4241,0.1131 -0.6633,0.1131 -0.2484,0 -0.4726,-0.0397 -0.6719,-0.1225 -0.1995,-0.0811 -0.3685,-0.1973 -0.5082,-0.3435 -0.1398,-0.1457 -0.2478,-0.3192 -0.3234,-0.5208 -0.0754,-0.2021 -0.1129,-0.4237 -0.1129,-0.6633 0,-0.5369 0.1398,-0.945 0.4167,-1.2262 0.2773,-0.2815 0.6699,-0.4233 1.1798,-0.4233 0.2665,0 0.5037,0.0417 0.7095,0.1262 0.2064,0.0842 0.3796,0.1995 0.5216,0.3452 0.1417,0.1469 0.2503,0.3204 0.3234,0.5196 0.0732,0.1987 0.1086,0.4147 0.1086,0.6458"/>
      <path id="path30" style="fill:#ffffff;fill-opacity:1;fill-rule:evenodd;stroke:none" d="m 63.8376,605.0733 h 471.5938 v 2.9435 H 63.8376 Z"/>
      <path id="path32" style="fill:#ffffff;fill-opacity:1;fill-rule:evenodd;stroke:none" d="m 252.7123,617.4249 c -1.4411,0.9474 -2.5302,2.064 -3.2782,3.3495 -0.6948,1.2288 -1.2005,2.5336 -1.48,3.9019 -1.0743,-1.1104 -2.3003,-2.1603 -3.6935,-3.1525 -1.6538,-1.1877 -3.3633,-2.1619 -5.1299,-2.9401 -1.7668,-0.7625 -3.2227,-1.1588 -4.3957,-1.1588 -1.8649,0.5517 -3.2921,1.3853 -4.2539,2.4877 -0.9751,1.1021 -1.6396,2.4021 -1.9928,3.8863 -0.3532,1.4984 -0.4805,3.1094 -0.3674,4.8487 0.1131,1.7376 0.311,3.4761 0.6217,5.2143 0.2968,1.7385 0.6361,3.4348 0.989,5.1024 0.3538,1.6531 0.5941,3.1657 0.707,4.5504 -1.0035,0.3816 -2.035,0.226 -3.1094,-0.494 -1.0737,-0.7215 -2.1903,-1.7672 -3.3494,-3.1524 -1.1588,-1.3851 -2.3743,-2.9818 -3.6468,-4.8051 -1.271,-1.8238 -2.5718,-3.6464 -3.886,-5.4549 -1.3289,-1.8239 -2.6852,-3.5334 -4.0705,-5.1024 -1.3714,-1.569 -2.7842,-2.7987 -4.2117,-3.6887 -0.7779,-0.0428 -1.3992,0.1837 -1.8652,0.7066 -0.4666,0.5228 -0.8348,1.1444 -1.0741,1.8652 -0.2551,0.7212 -0.4107,1.385 -0.466,1.9934 -0.0575,0.6071 -0.0575,0.9612 0,1.0746 0,1.4833 0.1261,2.9673 0.3813,4.4234 0.2401,1.4695 0.5366,2.9245 0.8614,4.3952 0.3393,1.4555 0.6219,2.9253 0.8768,4.3806 0.2398,1.4701 0.3679,2.9687 0.3679,4.523 -0.6083,1.3141 -1.315,1.5965 -2.1061,0.82 -0.8054,-0.7645 -1.6963,-2.0778 -2.7003,-3.9296 -0.9885,-1.8513 -2.0208,-4.0281 -3.0946,-6.543 -1.0882,-2.516 -2.1765,-4.8628 -3.2786,-7.0384 -1.1032,-2.177 -2.1906,-3.9571 -3.2652,-5.3422 -1.0738,-1.3716 -2.0914,-1.8793 -3.0246,-1.4845 -0.989,0 -1.682,0.3104 -2.0772,0.9474 -0.3586,0.597 -0.5553,1.381 -0.5777,2.3408 -1.2098,-1.3048 -2.5461,-2.4443 -4.0155,-3.4149 -2.2899,-1.5276 -4.6783,-2.6294 -7.166,-3.3071 -2.4866,-0.6926 -4.9604,-0.9757 -7.4194,-0.8346 -2.4452,0.142 -4.6922,0.7351 -6.6994,1.781 -2.0206,1.0463 -3.7026,2.558 -5.0599,4.5083 -0.4456,0.6528 -0.8331,1.3578 -1.1627,2.1155 -0.0332,-0.0684 -0.0701,-0.1381 -0.1083,-0.2073 -0.3393,-0.5794 -0.8054,-1.1021 -1.414,-1.5684 -0.6074,-0.4807 -1.1871,-0.7922 -1.7384,-0.9615 -4.6353,-0.9331 -8.5927,-1.7246 -11.8863,-2.361 -3.2782,-0.6346 -6.0199,-1.1585 -8.2392,-1.5681 -2.2042,-0.4099 -3.9713,-0.7489 -5.2999,-0.989 -1.3144,-0.2543 -2.3321,-0.4243 -3.0098,-0.4943 -0.6925,-0.0857 -1.1733,-0.1421 -1.4562,-0.1704 -0.2823,-0.0284 -0.466,-0.0422 -0.5797,-0.0422 -0.0564,0 -0.3393,0.0289 -0.8759,0.0844 -0.5232,0.0573 -1.1026,0.3118 -1.7379,0.7779 -0.6225,0.4804 -1.2019,1.2432 -1.6962,2.3178 -0.495,1.0874 -0.7345,2.6428 -0.7345,4.6781 l 21.1147,26.0892 -24.6773,-6.3737 c 0,0.8906 0.0139,1.7524 0.0425,2.6149 0.0287,0.8473 0.1415,1.639 0.3677,2.3602 0.2265,0.7061 0.5794,1.3283 1.074,1.8513 0.495,0.5369 1.1875,0.9045 2.0784,1.1302 4.2953,1.159 8.6913,2.2903 13.1573,3.3925 4.4802,1.1021 8.9461,1.8515 13.4121,2.2325 1.3281,-1.4836 1.9219,-3.1374 1.7805,-4.932 -0.1267,-1.7949 -0.7206,-3.6606 -1.7805,-5.625 -1.0454,-1.9645 -2.4307,-3.943 -4.1689,-5.9644 -1.7529,-2.0211 -3.5334,-3.9994 -5.3427,-5.9636 -1.823,-1.9644 -3.5751,-3.859 -5.2572,-5.7103 -1.6965,-1.8514 -3.0248,-3.547 -4.028,-5.1018 2.431,0 4.8762,0.2406 7.3349,0.7066 2.4591,0.4808 4.9326,0.9613 7.4058,1.4565 2.4871,0.4935 5.0029,0.8895 7.547,1.2004 2.5299,0.2968 5.1021,0.2829 7.6884,-0.0422 l 0.1406,-0.0601 c -0.1746,0.7795 -0.3022,1.6002 -0.3813,2.4628 -1.2146,-0.1701 -2.0627,-0.0423 -2.5296,0.3673 -0.466,0.4096 -0.6922,0.961 -0.6642,1.611 0.0284,0.6641 0.2685,1.4139 0.707,2.2475 0.438,0.8195 0.9462,1.5974 1.5265,2.3179 0.5796,0.7061 1.1735,1.3006 1.781,1.7382 0.6074,0.4383 1.0732,0.6361 1.4125,0.5794 1.2157,2.1479 2.304,4.5083 3.2652,7.0801 0.9757,2.5592 2.035,5.0315 3.1935,7.4058 1.1594,2.3743 2.573,4.4808 4.2681,6.2895 1.6824,1.8236 3.8444,3.0382 6.4877,3.6463 1.1166,0 1.993,-0.2685 2.6572,-0.8195 0.6636,-0.5514 1.1588,-1.2581 1.4839,-2.1189 0.3393,-0.849 0.565,-1.7816 0.6642,-2.7715 0.1131,-0.9884 0.1698,-1.908 0.1698,-2.7278 0,-2.5441 -0.4388,-4.7344 -1.3283,-6.5848 -0.8771,-1.8516 -1.9795,-3.449 -3.3078,-4.8062 -1.3283,-1.3564 -2.7414,-2.5719 -4.2681,-3.6462 -1.512,-1.0737 -2.9398,-2.1194 -4.2681,-3.1515 -1.3148,-1.018 -2.4166,-2.1056 -3.3075,-3.2644 -0.8765,-1.1597 -1.3283,-2.5163 -1.3283,-4.0572 1.2152,-2.6 2.8834,-4.2529 5.0176,-4.9743 2.1194,-0.7064 4.4096,-0.8762 6.868,-0.4943 2.4594,0.3957 4.9332,1.1582 7.4203,2.3178 2.4735,1.1586 4.6922,2.3174 6.6146,3.4765 0.5514,0 0.9752,-0.0993 1.2439,-0.3257 l 0.0845,-0.0709 4.4804,21.441 c -0.1134,0.6071 -0.1704,1.2858 -0.1704,2.0636 0,0.7772 0.1131,1.512 0.3399,2.1903 0.2118,0.6922 0.5794,1.2716 1.0738,1.7388 0.4952,0.4805 1.2152,0.7058 2.1486,0.7058 1.2719,0 2.1334,-0.4518 2.5719,-1.3566 0.4377,-0.919 0.6642,-1.9925 0.6642,-3.2361 0,-1.2438 -0.142,-2.4877 -0.4235,-3.7312 -0.269,-1.23 -0.4952,-2.162 -0.6506,-2.7703 0.8195,0.6644 1.6248,1.5542 2.3882,2.6994 0.7781,1.1307 1.5973,2.2479 2.4455,3.3494 0.862,1.1024 1.7804,2.0495 2.7839,2.8554 0.9895,0.8047 2.12,1.2004 3.3925,1.2004 2.0914,-0.9326 3.4197,-2.2325 3.9713,-3.886 0.5511,-1.6679 0.7489,-3.4906 0.5794,-5.4691 -0.1704,-1.9937 -0.4524,-4.0142 -0.8629,-6.0914 -0.4235,-2.0639 -0.5221,-3.9858 -0.2965,-5.7529 0.989,0.8339 1.9928,1.8941 2.9818,3.1943 0.9896,1.2867 2.0217,2.6856 3.0677,4.1692 1.0451,1.4987 2.1197,2.9965 3.2224,4.5233 1.1018,1.512 2.2612,2.8825 3.4761,4.0977 1.2161,1.2153 2.516,2.2057 3.9008,2.9824 1.3714,0.7625 2.8692,1.1591 4.4665,1.1591 1.5543,-1.1591 2.5577,-2.5297 3.0246,-4.0987 0.4663,-1.5823 0.6358,-3.2782 0.4943,-5.1023 -0.1414,-1.823 -0.4382,-3.7024 -0.9039,-5.667 -0.4675,-1.9647 -0.891,-3.9005 -1.2441,-5.8371 -0.3677,-1.9361 -0.5233,-3.8022 -0.4944,-5.5971 0.0278,-1.7943 0.4518,-3.4341 1.271,-4.9181 1.0038,-0.2253 2.0923,0 3.2797,0.6648 1.1875,0.6636 2.3599,1.4417 3.5187,2.3595 1.1591,0.9048 2.2609,1.7666 3.3072,2.5583 0.6244,0.4748 1.1851,0.8076 1.6883,1.0003 0.0904,1.2042 0.2199,2.4157 0.3892,3.6358 0.2123,1.6392 0.4246,3.2354 0.6225,4.805 0.1839,1.5828 0.282,3.0812 0.282,4.5226 -0.7775,0.989 -1.1305,2.0495 -1.0738,3.1797 0.0564,1.1304 0.3246,2.1767 0.8343,3.1093 0.4946,0.9331 1.1585,1.7526 1.978,2.4449 0.8337,0.6925 1.6534,1.0885 2.4874,1.2019 0.8337,0.1128 1.569,-0.1273 2.2328,-0.707 0.6642,-0.5794 1.0747,-1.6387 1.2442,-3.1935 0,-2.3185 -0.2685,-4.7206 -0.7917,-7.1941 -0.5233,-2.4877 -0.9468,-4.9603 -1.2717,-7.4197 -0.3393,-2.4596 -0.424,-4.848 -0.2545,-7.1657 0.1698,-2.3181 0.9609,-4.4657 2.4021,-6.4593 0,-1.1021 -0.3527,-2.0494 -1.0738,-2.8547 -0.7206,-0.7912 -1.7096,-1.2014 -2.9821,-1.2014 z m -182.6841,0.7492 c -0.9331,-0.7202 -1.8371,-1.2721 -2.6852,-1.654 -0.8629,-0.3951 -1.5829,-0.4235 -2.1626,-0.0844 -0.58,0.3257 -0.9609,1.0885 -1.1588,2.2759 -0.184,1.1869 -0.0564,2.9956 0.3815,5.4266 l 3.9708,61.6062 c 0.0573,1.9936 0.2835,3.5193 0.6653,4.5936 0.3816,1.0876 0.8615,1.7234 1.4125,1.9499 0.5516,0.2262 1.1446,0.057 1.781,-0.4952 0.6217,-0.5507 1.1872,-1.4689 1.696,-2.7266 0.4949,0.7067 1.4559,1.3428 2.8973,1.8935 1.4278,0.5516 3.0107,1.0463 4.7202,1.4556 1.7105,0.4096 3.4064,0.735 5.0885,0.9471 1.6812,0.2267 3.0524,0.3396 4.0978,0.3396 4.8625,-1.1024 8.4662,-2.7987 10.8124,-5.0602 2.346,-2.2614 3.7027,-4.8189 4.0984,-7.6597 0.3815,-2.8418 -0.042,-5.8377 -1.2864,-8.9743 -1.2438,-3.1521 -3.0382,-6.1628 -5.3841,-9.0314 -2.3468,-2.8692 -5.1018,-5.4559 -8.2823,-7.7448 -3.166,-2.2899 -6.4443,-4.0145 -9.8084,-5.1724 -0.0567,0.0555 0.2117,-0.453 0.8192,-1.5406 0.6083,-1.0747 1.4842,-2.4458 2.615,-4.1417 1.131,-1.6816 2.4737,-3.5618 4.0144,-5.6245 1.5539,-2.0778 3.236,-4.0851 5.059,-6.0497 1.8235,-1.9494 3.7032,-3.7163 5.6676,-5.2989 1.9649,-1.5689 3.9296,-2.7138 5.9221,-3.4355 1.9928,-0.7203 3.9291,-0.8759 5.836,-0.4936 1.9083,0.3807 3.6895,1.5679 5.343,3.5612 0.8337,-3.2649 0.8476,-5.7521 0.0847,-7.4914 -0.7778,-1.7376 -2.1342,-2.8261 -4.056,-3.2355 -1.9364,-0.4098 -4.2962,-0.2262 -7.081,0.5794 -2.7984,0.8057 -5.7659,2.1343 -8.9036,4.0133 -4.5791,5.1446 -8.3665,9.3425 -11.3488,12.6355 -2.9818,3.2791 -5.3853,5.7798 -7.2079,7.49 -1.8236,1.7107 -3.1377,2.7422 -3.9708,3.1098 -0.8337,0.353 -1.3717,0.1693 -1.6118,-0.5794 -0.2543,-0.7492 -0.339,-1.9508 -0.2543,-3.6036 0.0845,-1.6541 0.1415,-3.6188 0.1696,-5.8799 0.0277,-2.2615 -0.0703,-4.7634 -0.2968,-7.4912 -0.2123,-2.7414 -0.7628,-5.5394 -1.6535,-8.4087 z m 29.1563,61.3662 c -0.0564,1.9785 -0.6361,3.5753 -1.7385,4.7624 -1.1021,1.1872 -2.4876,2.0073 -4.1411,2.4733 -1.6532,0.4804 -3.4767,0.6225 -5.4689,0.4663 -1.9927,-0.1695 -3.8591,-0.593 -5.625,-1.2855 -1.7669,-0.6925 -3.3075,-1.5977 -4.6072,-2.7426 -1.2864,-1.1299 -2.1061,-2.402 -2.4318,-3.844 l -0.7484,-25.3403 c 1.4837,0.3259 3.1519,0.9892 5.0029,1.9933 1.8513,0.989 3.7168,2.19 5.5967,3.6037 1.8797,1.3991 3.689,2.9528 5.4272,4.6774 1.7379,1.7104 3.2641,3.4486 4.5936,5.2155 1.3283,1.7665 2.3743,3.5186 3.1376,5.2571 0.7767,1.7388 1.116,3.3217 1.0029,4.7634 z m 73.0259,-26.3441 c -0.1698,0.8901 -0.438,1.3138 -0.8198,1.2864 -0.396,-0.029 -0.8056,-0.3255 -1.2433,-0.9049 -0.4527,-0.5794 -0.9331,-1.3566 -1.4561,-2.3179 -0.5236,-0.9751 -1.0032,-1.9788 -1.4417,-3.0245 -0.4521,-1.0457 -0.834,-2.0356 -1.1588,-2.9393 -0.339,-0.9192 -0.5511,-1.5828 -0.6642,-2.0352 0.8762,0.7766 1.7379,1.5258 2.558,2.2464 0.8337,0.7073 1.5681,1.4423 2.2048,2.1906 0.6358,0.7353 1.1302,1.5545 1.4836,2.4458 0.3535,0.8759 0.5375,1.8938 0.5375,3.0526 z m 81.9862,20.2944 c 0,0.9904 0.3112,1.9085 0.9187,2.7277 0.6074,0.8346 1.455,1.2439 2.5574,1.2439 1.1591,0 1.8516,-0.311 2.0778,-0.9465 0.2123,-0.6361 0.3251,-1.4562 0.3251,-2.4455 0,-0.3242 -0.0561,-0.7908 -0.1553,-1.3711 -0.1128,-0.5788 -0.3107,-1.1154 -0.5794,-1.6103 -0.2826,-0.4947 -0.6219,-0.9046 -1.046,-1.2439 -0.4096,-0.3251 -0.9468,-0.4093 -1.6109,-0.2406 -1.1021,0.2687 -1.7944,0.7778 -2.0634,1.5273 -0.2834,0.7486 -0.424,1.5258 -0.424,2.359"/>
      <path id="path34" style="fill:#ffffff;fill-opacity:1;fill-rule:evenodd;stroke:none" d="m 304.2272,624.1382 c -2.6002,-1.654 -4.593,-2.3607 -6.0058,-2.1197 -0.4149,0.0748 -0.7792,0.1891 -1.0916,0.3416 -0.7526,-0.6633 -1.5468,-1.2719 -2.3856,-1.8253 -2.2893,-1.5276 -4.6783,-2.6294 -7.1649,-3.3071 -2.4879,-0.6926 -4.9612,-0.9757 -7.4202,-0.8346 -2.4455,0.142 -4.6919,0.7351 -6.6988,1.781 -2.022,1.0463 -3.7027,2.558 -5.0599,4.5083 -1.343,1.9647 -2.1628,4.4098 -2.431,7.3355 -1.2155,-0.1701 -2.0642,-0.0423 -2.5302,0.3673 -0.466,0.4096 -0.6922,0.961 -0.6633,1.611 0.0275,0.6641 0.2682,1.4139 0.7055,2.2475 0.4389,0.8195 0.9474,1.5974 1.5274,2.3179 0.5788,0.7061 1.1726,1.3006 1.7798,1.7382 0.6078,0.4383 1.0741,0.6361 1.414,0.5794 1.2143,2.1479 2.3031,4.5083 3.2646,7.0801 0.9751,2.5592 2.0353,5.0315 3.1935,7.4058 1.1591,2.3743 2.573,4.4808 4.2682,6.2895 1.6826,1.8236 3.8446,3.0382 6.4873,3.6463 1.1169,0 1.9933,-0.2685 2.6575,-0.8195 0.6642,-0.5514 1.1585,-1.2581 1.4837,-2.1189 0.3393,-0.849 0.5652,-1.7816 0.6644,-2.7715 0.1131,-0.9884 0.1692,-1.908 0.1692,-2.7278 0,-2.5441 -0.4374,-4.7344 -1.3283,-6.5848 -0.8759,-1.8516 -1.9786,-3.449 -3.3075,-4.8062 -1.328,-1.3564 -2.7413,-2.5719 -4.2681,-3.6462 -1.512,-1.0737 -2.9398,-2.1194 -4.2678,-3.1515 -1.315,-1.018 -2.4171,-2.1056 -3.3072,-3.2644 -0.8768,-1.1597 -1.3286,-2.5163 -1.3286,-4.0572 1.2158,-2.6 2.8837,-4.2529 5.0168,-4.9743 2.12,-0.7064 4.4098,-0.8762 6.8694,-0.4943 2.4594,0.3957 4.9323,1.1582 7.4197,2.3178 2.473,1.1586 4.6922,2.3174 6.6141,3.4765 0.2013,0 0.3858,-0.0131 0.5525,-0.0412 0.8288,0.497 1.8079,0.8961 2.9386,1.2002 1.9789,0.7767 3.6885,1.9358 5.0874,3.4903 1.4139,1.541 2.6291,3.3078 3.6468,5.3003 1.0182,1.9785 1.9221,4.085 2.6855,6.2886 0.7773,2.2057 1.4837,4.3246 2.1197,6.3749 0.6361,2.0486 1.2864,3.9152 1.9506,5.6245 0.65,1.7246 1.4278,3.0673 2.3176,4.0711 1.3141,-1.4426 2.6716,-3.2366 4.0555,-5.3847 1.3711,-2.1629 2.6578,-4.5085 3.8446,-7.0384 1.1875,-2.5444 2.1904,-5.1874 3.024,-7.9152 0.8351,-2.7275 1.372,-5.3844 1.6118,-7.9421 0.2548,-2.5728 0.1415,-4.9751 -0.3248,-7.2085 -0.4663,-2.2323 -1.4276,-4.1125 -2.8551,-5.6393 -1.4406,-1.512 -3.42,-2.6005 -5.9644,-3.2644 -2.5435,-0.665 -5.7376,-0.7205 -9.6106,-0.1698 -2.0911,0 -3.9852,0.6648 -5.667,1.9937 -1.6821,1.3271 -2.9117,2.8961 -3.689,4.7196 z m -20.3791,29.058 c -0.1704,0.8901 -0.4388,1.3138 -0.8204,1.2864 -0.3957,-0.029 -0.8053,-0.3255 -1.2438,-0.9049 -0.4518,-0.5794 -0.9326,-1.3566 -1.455,-2.3179 -0.523,-0.9751 -1.0035,-1.9788 -1.4423,-3.0245 -0.4521,-1.0457 -0.8337,-2.0356 -1.1585,-2.9393 -0.339,-0.9192 -0.5516,-1.5828 -0.6642,-2.0352 0.8759,0.7766 1.7382,1.5258 2.558,2.2464 0.8337,0.7073 1.5687,1.4423 2.2045,2.1906 0.6367,0.7353 1.131,1.5545 1.4848,2.4458 0.3526,0.8759 0.5369,1.8938 0.5369,3.0526 z m 26.9229,-25.6655 c 2.0917,-1.5412 4.1131,-2.5585 6.0494,-3.0248 1.9219,-0.4663 3.632,-0.4663 5.1302,0 1.4836,0.4663 2.671,1.3428 3.5611,2.6144 0.8771,1.2725 1.3431,2.8553 1.3714,4.7628 0.0278,1.8938 -0.4521,4.0838 -1.4136,6.5437 -0.9612,2.4446 -2.5586,5.0879 -4.7628,7.9005 -0.3251,-0.2259 -0.8053,-0.7915 -1.4128,-1.6957 -0.608,-0.9048 -1.2722,-1.993 -2.0216,-3.2369 -0.7487,-1.2294 -1.512,-2.5721 -2.2754,-4.0138 -0.7773,-1.4276 -1.4837,-2.812 -2.1198,-4.1415 -0.6363,-1.3141 -1.1454,-2.4862 -1.5261,-3.5186 -0.3821,-1.0177 -0.58,-1.753 -0.58,-2.1901 z m -0.7206,37.0987 c -1.1165,0 -1.8088,0.2263 -2.1197,0.6651 -0.2974,0.4376 -0.4524,1.1018 -0.4524,1.9921 0.4379,0.65 1.131,1.6251 2.063,2.8976 0.9471,1.2578 2.0067,2.5722 3.1941,3.9288 1.1869,1.357 2.4035,2.6003 3.6468,3.7593 1.2435,1.1727 2.4307,1.9931 3.5617,2.4874 1.1299,0.495 2.1056,0.5089 2.9395,0.0429 0.8201,-0.4669 1.3712,-1.6682 1.6538,-3.6046 0.0558,-1.0457 -0.4524,-2.2189 -1.5268,-3.5186 -1.0882,-1.2861 -2.4026,-2.5441 -3.9852,-3.7596 -1.569,-1.2161 -3.1938,-2.2754 -4.8759,-3.1935 -1.6962,-0.9049 -3.0535,-1.4706 -4.0989,-1.6969"/>
      <path id="path36" style="fill:#ffffff;fill-opacity:1;fill-rule:evenodd;stroke:none" d="m 402.6084,617.4249 c -1.4423,0.9474 -2.5296,2.064 -3.2791,3.3495 -0.7271,1.2863 -1.2467,2.656 -1.518,4.0955 l -0.2063,-0.3215 c -1.0316,-1.5412 -2.3179,-2.9115 -3.9005,-4.0989 -1.5693,-1.1869 -3.1377,-1.8366 -4.6783,-1.9499 -1.046,0 -1.9083,0.3106 -2.5583,0.919 -0.6641,0.6068 -1.1874,1.3424 -1.5825,2.2325 -0.3816,0.8765 -0.6503,1.8374 -0.7918,2.8548 -0.127,1.0176 -0.1978,1.9786 -0.1978,2.8548 0,1.9922 0.1414,3.8299 0.4102,5.5119 0.282,1.6815 0.5794,3.3497 0.9184,5.0035 0.3248,1.6676 0.6222,3.3346 0.9042,5.0167 0.2826,1.6812 0.4105,3.5192 0.4105,5.5123 -0.9332,1.1591 -2.0353,1.5261 -3.3078,1.1163 -1.2716,-0.4238 -2.6144,-1.3714 -4.0135,-2.8548 -1.4128,-1.4981 -2.7981,-3.392 -4.1837,-5.6812 -1.385,-2.2896 -2.6427,-4.6928 -3.7735,-7.2085 -1.1304,-2.5013 -2.0497,-5.0035 -2.7697,-7.4906 -0.7211,-2.4874 -1.1018,-4.6638 -1.1597,-6.5437 -0.282,-0.5508 -0.6352,-1.0744 -1.0732,-1.5685 -0.4385,-0.494 -0.9751,-0.7492 -1.5834,-0.7492 -1.2583,-0.3245 -2.1764,-0.0138 -2.7272,0.9613 -0.5511,0.9609 -0.8623,2.3882 -0.9471,4.2962 l -0.006,0.1397 c -0.796,-0.8657 -1.804,-1.6568 -3.0183,-2.3726 -1.8233,-1.0738 -3.8585,-1.8938 -6.1197,-2.4452 -2.2612,-0.5504 -4.1976,-0.7486 -5.8088,-0.5794 -1.7671,-0.1692 -3.3066,0.1134 -4.6355,0.8337 -1.3141,0.7211 -2.4307,1.7107 -3.3075,2.9821 -0.89,1.2722 -1.5545,2.7425 -2.0349,4.4231 -0.4661,1.6827 -0.7634,3.4212 -0.9046,5.2166 -0.1411,1.7947 -0.1131,3.5615 0.0853,5.3 0.1973,1.7376 0.5083,3.3074 0.946,4.6771 l 7.7882,42.0747 c 0.2262,1.2155 0.6783,1.9499 1.3708,2.1903 0.6922,0.2543 1.3703,0.1418 2.0633,-0.3251 0.6925,-0.4663 1.258,-1.2716 1.696,-2.4024 0.4521,-1.1307 0.551,-2.4451 0.3393,-3.9291 l -6.713,-34.2867 c -0.608,-3.9288 -0.8342,-7.0384 -0.7075,-9.3563 0.142,-2.3174 0.5371,-4.1412 1.2016,-5.47 0.6644,-1.3281 1.4984,-2.2607 2.4879,-2.812 0.9896,-0.5514 2.0489,-1.0315 3.1507,-1.4134 1.1591,0 2.2757,0.1837 3.3503,0.5363 1.0735,0.3683 2.12,0.764 3.151,1.2019 1.0182,0.4386 2.035,0.8482 3.0535,1.2016 0.8765,0.3005 1.7952,0.4782 2.7632,0.5244 0.0281,0.3189 0.0587,0.6432 0.0918,0.9737 0.2818,2.6709 0.5936,5.5406 0.9607,8.6075 0.3532,3.0665 0.7067,6.2458 1.0743,9.5674 0.3529,3.3069 0.5939,6.5441 0.7067,9.6812 0.3249,0 0.7767,0.0425 1.3561,0.1279 0.58,0.0844 1.1736,0.1125 1.7816,0.0844 0.6072,-0.028 1.1443,-0.1272 1.6251,-0.2965 0.466,-0.1559 0.7495,-0.4952 0.8617,-0.9901 v -13.3265 c 0.9896,1.7093 2.1345,3.4905 3.4342,5.3421 1.3008,1.8372 2.7136,3.5895 4.2256,5.2149 1.5128,1.6249 3.1382,3.0101 4.8487,4.1409 1.7095,1.1302 3.5047,1.8091 5.3844,2.0211 1.2157,0 2.1764,-0.2685 2.897,-0.8204 0.7069,-0.5504 1.2719,-1.2716 1.6537,-2.1617 0.3816,-0.8764 0.6364,-1.851 0.7492,-2.9398 0.0984,-1.0737 0.1556,-2.1058 0.1556,-3.0948 -1.1027,-5.1449 -2.0778,-9.6534 -2.9401,-13.5392 -0.8478,-3.9013 -1.2432,-6.7847 -1.1596,-8.6643 0.0856,-1.8652 0.8345,-2.53 2.2481,-1.9786 1.3074,0.5148 3.5031,2.4245 6.5747,5.7382 0.0709,0.6896 0.1542,1.3821 0.2512,2.0778 0.2123,1.6392 0.424,3.2354 0.6219,4.805 0.184,1.5828 0.2834,3.0812 0.2834,4.5226 -0.7778,0.989 -1.131,2.0495 -1.0746,3.1797 0.0562,1.1304 0.3252,2.1767 0.8337,3.1093 0.4946,0.9331 1.1588,1.7526 1.9794,2.4449 0.8337,0.6925 1.6532,1.0885 2.4869,1.2019 0.8339,0.1128 1.5687,-0.1273 2.2331,-0.707 0.6644,-0.5794 1.0741,-1.6387 1.2433,-3.1935 0,-2.3185 -0.2682,-4.7206 -0.7912,-7.1941 -0.5227,-2.4877 -0.9467,-4.9603 -1.2716,-7.4197 -0.3399,-2.4596 -0.4243,-4.848 -0.2551,-7.1657 0.1698,-2.3181 0.9618,-4.4657 2.4026,-6.4593 0,-1.1021 -0.3529,-2.0494 -1.0737,-2.8547 -0.7214,-0.7912 -1.7102,-1.2014 -2.9818,-1.2014 z m 1.4837,56.0657 c 0,0.9904 0.3106,1.9085 0.9181,2.7277 0.608,0.8346 1.4564,1.2439 2.5586,1.2439 1.159,0 1.8515,-0.311 2.0778,-0.9465 0.2123,-0.6361 0.3245,-1.4562 0.3245,-2.4455 0,-0.3242 -0.0558,-0.7908 -0.1548,-1.3711 -0.1139,-0.5788 -0.3118,-1.1154 -0.5799,-1.6103 -0.2824,-0.4947 -0.6214,-0.9046 -1.0457,-1.2439 -0.4102,-0.3251 -0.9476,-0.4093 -1.6115,-0.2406 -1.1021,0.2687 -1.7946,0.7778 -2.0628,1.5273 -0.2829,0.7486 -0.4243,1.5258 -0.4243,2.359"/>
      <path id="path38" style="fill:#ffffff;fill-opacity:1;fill-rule:evenodd;stroke:none" d="m 415.3558,638.5402 c 0,1.9931 0.2835,4.254 0.8342,6.7981 0.5511,2.5293 1.4131,4.9464 2.5722,7.2351 1.1588,2.304 2.6427,4.2265 4.466,5.8093 1.8235,1.5684 4.0277,2.3607 6.6285,2.3607 0.8195,0.2688 1.7946,0.3113 2.8973,0.1129 1.1021,-0.1834 2.1903,-0.523 3.2652,-0.9888 1.0738,-0.4671 2.0489,-1.0613 2.8968,-1.7815 0.8623,-0.7206 1.4694,-1.4834 1.8232,-2.3177 0.3674,-0.8342 0.3674,-1.682 0,-2.5721 -0.3538,-0.8771 -1.2297,-1.7102 -2.5999,-2.4732 -0.665,0 -1.2442,0.1698 -1.7385,0.5368 -0.5091,0.353 -0.9896,0.749 -1.4565,1.2011 -0.4657,0.4382 -0.9606,0.8339 -1.4833,1.2019 -0.523,0.3535 -1.1447,0.5366 -1.8661,0.5366 -2.0489,-0.1131 -3.7879,-0.862 -5.2152,-2.2334 -1.4411,-1.3851 -2.5721,-3.0805 -3.4058,-5.1018 -0.82,-2.0067 -1.315,-4.197 -1.4839,-6.5433 -0.1695,-2.3462 0.0275,-4.5377 0.5791,-6.5863 0.5511,-2.0355 1.4564,-3.7879 2.7281,-5.2577 1.2719,-1.4555 2.9539,-2.3037 5.0595,-2.5151 1.5968,0 3.1941,0.2829 4.8056,0.8614 1.597,0.5805 3.166,1.3005 4.7203,2.1631 1.54,0.8482 3.0101,1.7521 4.3815,2.6853 1.3841,0.932 2.6566,1.766 3.816,2.4865 0,-0.1119 0.028,-0.3393 0.0842,-0.6633 0.0428,-0.3396 0.0853,-0.6789 0.1131,-1.0323 0.0283,-0.3668 0.0564,-0.7206 0.0847,-1.0874 0.0289,-0.3541 0.0428,-0.5655 0.0428,-0.608 -1.1032,-3.2086 -2.6711,-5.7666 -4.7211,-7.6604 -2.0353,-1.9083 -4.2817,-3.2224 -6.6983,-3.9436 -2.4307,-0.7202 -4.9184,-0.8192 -7.4624,-0.3242 -2.5439,0.494 -4.8479,1.5536 -6.9112,3.1796 -2.0778,1.639 -3.7454,3.8302 -5.0176,6.5857 -1.2572,2.7561 -1.8369,6.0772 -1.7385,9.936"/>
      <path id="path40" style="fill:#ffffff;fill-opacity:1;fill-rule:evenodd;stroke:none" d="m 486.5732,634.8934 c 0,1.3853 0.1828,2.9688 0.5363,4.7628 0.3679,1.7958 0.8765,3.661 1.5412,5.597 0.6641,1.9364 1.4839,3.8157 2.4874,5.6671 0.989,1.8513 2.12,3.5053 3.3913,4.9748 1.2725,1.4561 2.6717,2.6294 4.2257,3.5195 1.5412,0.8764 3.2224,1.3288 5.0459,1.3288 1.6535,-0.0569 3.3355,-0.4243 5.0168,-1.0888 1.6826,-0.6497 3.308,-1.4694 4.8761,-2.4312 1.5835,-0.9749 3.0813,-2.0345 4.5233,-3.1935 1.4275,-1.1588 2.7275,-2.2615 3.8863,-3.3069 -0.6072,-5.8513 -0.961,-10.5577 -1.0741,-14.1191 -0.1134,-3.5618 -0.0283,-6.2751 0.2401,-8.127 0.2826,-1.8377 0.7486,-2.9814 1.4136,-3.4344 0.6636,-0.4382 1.5118,-0.4657 2.5294,-0.0845 1.0179,0.3954 2.1906,1.0602 3.5189,1.9925 1.3292,0.9332 2.7845,1.8799 4.3815,2.8131 0.3394,0 0.8059,-0.057 1.4137,-0.1695 0.6074,-0.099 0.9048,-0.4388 0.9048,-0.9899 -1.0468,-3.2508 -2.4026,-5.7807 -4.0564,-7.5747 -1.6534,-1.7961 -3.3777,-2.9543 -5.1735,-3.4773 -1.7943,-0.523 -3.5473,-0.4518 -5.2568,0.2121 -1.7102,0.6647 -3.1371,1.8223 -4.2682,3.4764 -1.131,1.654 -1.866,3.7459 -2.1906,6.29 -0.3257,2.5439 0,5.4689 0.9893,8.7764 -0.8765,-2.5438 -2.2895,-4.9896 -4.2259,-7.3639 -1.9222,-2.3743 -4.0555,-4.3948 -6.374,-6.0485 -2.3181,-1.654 -4.6777,-2.8264 -7.0809,-3.519 -2.4027,-0.6925 -4.5224,-0.6641 -6.3734,0.0842 -1.6852,0.6687 -2.9957,2.0518 -3.9529,4.1276 -0.1931,-0.1968 -0.4062,-0.385 -0.6412,-0.5653 -0.6072,-0.4807 -1.1869,-0.7922 -1.738,-0.9615 -4.6357,-0.9331 -8.5932,-1.7246 -11.8856,-2.361 -3.2789,-0.6346 -6.0217,-1.1585 -8.2401,-1.5681 -2.2045,-0.4099 -3.9713,-0.7489 -5.2996,-0.989 -1.3147,-0.2543 -2.3324,-0.4243 -3.011,-0.4943 -0.6922,-0.0857 -1.1721,-0.1421 -1.455,-0.1704 -0.2835,-0.0284 -0.4671,-0.0422 -0.58,-0.0422 -0.0564,0 -0.3393,0.0289 -0.8756,0.0844 -0.5235,0.0573 -1.1024,0.3118 -1.7388,0.7779 -0.6213,0.4804 -1.2016,1.2432 -1.6962,2.3178 -0.4947,1.0874 -0.7342,2.6428 -0.7342,4.6781 l 21.1142,26.0892 -24.6759,-6.3737 c 0,0.8906 0.0139,1.7524 0.0422,2.6149 0.0281,0.8473 0.1412,1.639 0.3674,2.3602 0.2256,0.7061 0.5788,1.3283 1.0746,1.8513 0.4944,0.5369 1.1869,0.9045 2.0775,1.1302 4.2959,1.159 8.6913,2.2903 13.1576,3.3925 4.4804,1.1021 8.9459,1.8515 13.413,2.2325 1.328,-1.4836 1.921,-3.1374 1.7801,-4.932 -0.1272,-1.7949 -0.7203,-3.6606 -1.7801,-5.625 -1.0469,-1.9645 -2.4319,-3.943 -4.1698,-5.9644 -1.7527,-2.0211 -3.5334,-3.9994 -5.343,-5.9636 -1.8227,-1.9644 -3.5751,-3.859 -5.2569,-5.7103 -1.6962,-1.8514 -3.0248,-3.547 -4.0286,-5.1018 2.4313,0 4.8768,0.2406 7.3352,0.7066 2.4594,0.4808 4.9329,0.9613 7.4067,1.4565 2.4871,0.4935 5.0023,0.8895 7.5464,1.2004 2.2289,0.2617 4.4898,0.2818 6.7643,0.0613 -0.2103,1.989 -0.1528,4.3787 0.1755,7.1747 z m 5.5539,-1.2296 c 0.0564,-3.3211 0.6366,-5.4831 1.7385,-6.5013 1.1027,-1.0312 2.4454,-1.2722 4.0138,-0.7486 1.5832,0.5224 3.2925,1.6248 5.1299,3.3069 1.8519,1.6818 3.5478,3.5765 5.1024,5.6815 1.5406,2.0917 2.8131,4.1969 3.8018,6.3314 1.0032,2.1203 1.4984,3.873 1.4984,5.258 0,1.0454 -0.2262,1.9647 -0.6645,2.7281 -0.4382,0.7758 -1.0173,1.4128 -1.7382,1.908 -0.7211,0.4938 -1.5264,0.8753 -2.4454,1.1163 -0.9043,0.2542 -1.8088,0.3809 -2.685,0.3809 -2.3746,0 -4.4376,-0.6219 -6.1761,-1.8652 -1.7382,-1.2429 -3.1666,-2.8128 -4.2684,-4.7211 -1.1027,-1.9071 -1.9219,-3.9996 -2.4727,-6.3036 -0.5664,-2.2887 -0.8345,-4.4794 -0.8345,-6.5713"/>
    </g>
    <g id="g50"/>
    <g id="g60"/>
  </g>
</svg>